<?xml version="1.0" encoding="UTF-8" standalone="no"?>
<svg viewBox="0 0 95.1158 153.122" xmlns="http://www.w3.org/2000/svg">
<defs>
<marker id="ArrowEnd" markerHeight="3" markerUnits="strokeWidth" markerWidth="4" orient="auto" refX="0" refY="5" viewBox="0 0 10 10">
<path d="m0,0 10,5-10,5z"/>
</marker>
<marker id="ArrowStart" markerHeight="3" markerUnits="strokeWidth" markerWidth="4" orient="auto" refX="10" refY="5" viewBox="0 0 10 10">
<path d="m10,0-10,5 10,5z"/>
</marker>
</defs>
<path d="m51.6875,5.25c-5.4261-.14093-11.7739,12.8182-11.5625,24.375 .04852,3.52049 1.15991,10.6594 2.78125,19.625-10.22374,10.5808-22.09375,21.44034-22.09375,35.6875-.1632,13.0576 7.8164,29.69525 26.75,29.53125 2.906-.01496 5.52076-.38324 7.84375-1 1.73061,9.49176 2.8813,16.98111 2.875,20.4375 .06104,13.6404-17.86006,14.9904-18.71875,7.15625 3.77658-.1295 6.78125-3.13696 6.78125-6.84375 0-3.79-3.13795-6.875-7.03125-6.875-2.14153,0-4.04977.93799-5.34375,2.40625-.02928.03322-.06512.05999-.09375.09375-.29246.3043-.5376.68045-.78125,1.09375-.79762,1.35298-1.31605,3.2925-1.34375,6.0625 0,11.425 28.875,18.77399 28.875-3.75 .04515-3.02524-1.25751-10.71546-3.15625-20.40625 20.60311-7.45687 15.42719-38.04398-3.53125-38.1875-1.46973.01485-2.88634.18571-4.25.53125-1.07926-5.19689-2.12138-10.24087-3.03125-14.875 7.199-7.0715 13.48431-16.22496 13.34375-33.09375 .0222-12.1135-4.0139-21.82775-8.3125-21.96875zm1.28125,11.71875c2.45597-.23718 4.40625,2.0435 4.40625,7.0625 .1989,8.62006-5.83997,16.14757-13.03125,23.71875-.68756-4.1466-1.13889-7.50722-1.1875-9.5 .204-13.46569 5.71922-20.88595 9.8125-21.28125zm-7.71875,44.6875c.87679,4.51511 1.82433,9.27139 2.78125,14.0625-12.5486,4.46454-18.57031,21.95433-.78125,29.78125-10.84312-9.23105-5.50553-20.1575 2.3125-22.0625 1.96558,9.81696 3.88527,19.49981 5.4375,27.875-2.10738.73322-4.56641,1.16826-7.4375,1.1875-7.1817,0-21.53125-4.5732-21.53125-21.875 0-14.49394 10.04639-20.38354 19.21875-28.96875zm6.09375,21.46875c.31345-.01868.65177-.01133.96875,0 13.06242,0 17.98963,20.74282 4.6875,27.375-1.65504-8.31925-3.66162-17.86037-5.65625-27.375z" fill="none" stroke="#000"/>
</svg>
